<mxfile host="app.diagrams.net" modified="2021-06-04T08:03:37.602Z" agent="5.0 (Windows NT 10.0; Win64; x64) AppleWebKit/537.36 (KHTML, like Gecko) Chrome/90.0.4430.85 Safari/537.36" etag="5VFVt3XxjJYeYFJA4UIZ" version="14.7.2" type="github">
  <diagram id="kgpKYQtTHZ0yAKxKKP6v" name="Page-1">
    <mxGraphModel dx="1673" dy="946" grid="1" gridSize="10" guides="1" tooltips="1" connect="1" arrows="1" fold="1" page="1" pageScale="1" pageWidth="850" pageHeight="1100" math="0" shadow="0">
      <root>
        <mxCell id="0" />
        <mxCell id="1" parent="0" />
        <mxCell id="xMWqGZyCQrD27c-tNp-Z-33" value="" style="group" vertex="1" connectable="0" parent="1">
          <mxGeometry x="60" y="620" width="600" height="420" as="geometry" />
        </mxCell>
        <mxCell id="xMWqGZyCQrD27c-tNp-Z-31" value="" style="rounded=0;whiteSpace=wrap;html=1;" vertex="1" parent="xMWqGZyCQrD27c-tNp-Z-33">
          <mxGeometry width="600" height="420" as="geometry" />
        </mxCell>
        <mxCell id="xMWqGZyCQrD27c-tNp-Z-3" value="产品变动" style="text;html=1;strokeColor=none;fillColor=none;align=center;verticalAlign=middle;whiteSpace=wrap;rounded=0;" vertex="1" parent="xMWqGZyCQrD27c-tNp-Z-33">
          <mxGeometry x="60" y="70" width="70" height="30" as="geometry" />
        </mxCell>
        <mxCell id="xMWqGZyCQrD27c-tNp-Z-4" value="数据产品" style="text;html=1;strokeColor=none;fillColor=none;align=center;verticalAlign=middle;whiteSpace=wrap;rounded=0;" vertex="1" parent="xMWqGZyCQrD27c-tNp-Z-33">
          <mxGeometry x="200" y="70" width="70" height="30" as="geometry" />
        </mxCell>
        <mxCell id="xMWqGZyCQrD27c-tNp-Z-5" value="埋点测试" style="text;html=1;strokeColor=none;fillColor=none;align=center;verticalAlign=middle;whiteSpace=wrap;rounded=0;" vertex="1" parent="xMWqGZyCQrD27c-tNp-Z-33">
          <mxGeometry x="480" y="70" width="70" height="30" as="geometry" />
        </mxCell>
        <mxCell id="xMWqGZyCQrD27c-tNp-Z-6" value="埋点开发" style="text;html=1;strokeColor=none;fillColor=none;align=center;verticalAlign=middle;whiteSpace=wrap;rounded=0;" vertex="1" parent="xMWqGZyCQrD27c-tNp-Z-33">
          <mxGeometry x="340" y="70" width="70" height="30" as="geometry" />
        </mxCell>
        <mxCell id="xMWqGZyCQrD27c-tNp-Z-7" value="" style="endArrow=none;dashed=1;html=1;" edge="1" parent="xMWqGZyCQrD27c-tNp-Z-33">
          <mxGeometry width="50" height="50" relative="1" as="geometry">
            <mxPoint x="160" y="390" as="sourcePoint" />
            <mxPoint x="160" y="70" as="targetPoint" />
          </mxGeometry>
        </mxCell>
        <mxCell id="xMWqGZyCQrD27c-tNp-Z-8" value="" style="endArrow=none;dashed=1;html=1;" edge="1" parent="xMWqGZyCQrD27c-tNp-Z-33">
          <mxGeometry width="50" height="50" relative="1" as="geometry">
            <mxPoint x="310" y="390" as="sourcePoint" />
            <mxPoint x="310" y="70" as="targetPoint" />
          </mxGeometry>
        </mxCell>
        <mxCell id="xMWqGZyCQrD27c-tNp-Z-9" value="" style="endArrow=none;dashed=1;html=1;" edge="1" parent="xMWqGZyCQrD27c-tNp-Z-33">
          <mxGeometry width="50" height="50" relative="1" as="geometry">
            <mxPoint x="450" y="390" as="sourcePoint" />
            <mxPoint x="450" y="70" as="targetPoint" />
          </mxGeometry>
        </mxCell>
        <mxCell id="xMWqGZyCQrD27c-tNp-Z-11" value="产生需求" style="rounded=0;whiteSpace=wrap;html=1;fillColor=#1ba1e2;strokeColor=#006EAF;fontColor=#ffffff;" vertex="1" parent="xMWqGZyCQrD27c-tNp-Z-33">
          <mxGeometry x="60" y="110" width="80" height="30" as="geometry" />
        </mxCell>
        <mxCell id="xMWqGZyCQrD27c-tNp-Z-13" value="产生需求" style="rounded=0;whiteSpace=wrap;html=1;fillColor=#1ba1e2;strokeColor=#006EAF;fontColor=#ffffff;" vertex="1" parent="xMWqGZyCQrD27c-tNp-Z-33">
          <mxGeometry x="60" y="160" width="80" height="30" as="geometry" />
        </mxCell>
        <mxCell id="xMWqGZyCQrD27c-tNp-Z-15" value="" style="edgeStyle=orthogonalEdgeStyle;rounded=0;orthogonalLoop=1;jettySize=auto;html=1;" edge="1" parent="xMWqGZyCQrD27c-tNp-Z-33" source="xMWqGZyCQrD27c-tNp-Z-11" target="xMWqGZyCQrD27c-tNp-Z-13">
          <mxGeometry relative="1" as="geometry" />
        </mxCell>
        <mxCell id="xMWqGZyCQrD27c-tNp-Z-16" value="Review需求&lt;br&gt;" style="rounded=0;whiteSpace=wrap;html=1;fillColor=#1ba1e2;strokeColor=#006EAF;fontColor=#ffffff;" vertex="1" parent="xMWqGZyCQrD27c-tNp-Z-33">
          <mxGeometry x="200" y="160" width="80" height="30" as="geometry" />
        </mxCell>
        <mxCell id="xMWqGZyCQrD27c-tNp-Z-17" value="" style="edgeStyle=orthogonalEdgeStyle;rounded=0;orthogonalLoop=1;jettySize=auto;html=1;" edge="1" parent="xMWqGZyCQrD27c-tNp-Z-33" source="xMWqGZyCQrD27c-tNp-Z-13" target="xMWqGZyCQrD27c-tNp-Z-16">
          <mxGeometry relative="1" as="geometry" />
        </mxCell>
        <mxCell id="xMWqGZyCQrD27c-tNp-Z-18" value="事件设计" style="rounded=0;whiteSpace=wrap;html=1;fillColor=#1ba1e2;strokeColor=#006EAF;fontColor=#ffffff;" vertex="1" parent="xMWqGZyCQrD27c-tNp-Z-33">
          <mxGeometry x="200" y="210" width="80" height="30" as="geometry" />
        </mxCell>
        <mxCell id="xMWqGZyCQrD27c-tNp-Z-19" value="" style="edgeStyle=orthogonalEdgeStyle;rounded=0;orthogonalLoop=1;jettySize=auto;html=1;" edge="1" parent="xMWqGZyCQrD27c-tNp-Z-33" source="xMWqGZyCQrD27c-tNp-Z-16" target="xMWqGZyCQrD27c-tNp-Z-18">
          <mxGeometry relative="1" as="geometry" />
        </mxCell>
        <mxCell id="xMWqGZyCQrD27c-tNp-Z-20" value="埋点评审" style="rounded=0;whiteSpace=wrap;html=1;fillColor=#1ba1e2;strokeColor=#006EAF;fontColor=#ffffff;" vertex="1" parent="xMWqGZyCQrD27c-tNp-Z-33">
          <mxGeometry x="350" y="210" width="80" height="30" as="geometry" />
        </mxCell>
        <mxCell id="xMWqGZyCQrD27c-tNp-Z-21" value="" style="edgeStyle=orthogonalEdgeStyle;rounded=0;orthogonalLoop=1;jettySize=auto;html=1;" edge="1" parent="xMWqGZyCQrD27c-tNp-Z-33" source="xMWqGZyCQrD27c-tNp-Z-18" target="xMWqGZyCQrD27c-tNp-Z-20">
          <mxGeometry relative="1" as="geometry" />
        </mxCell>
        <mxCell id="xMWqGZyCQrD27c-tNp-Z-22" value="埋点开发" style="rounded=0;whiteSpace=wrap;html=1;fillColor=#1ba1e2;strokeColor=#006EAF;fontColor=#ffffff;" vertex="1" parent="xMWqGZyCQrD27c-tNp-Z-33">
          <mxGeometry x="350" y="260" width="80" height="30" as="geometry" />
        </mxCell>
        <mxCell id="xMWqGZyCQrD27c-tNp-Z-23" value="" style="edgeStyle=orthogonalEdgeStyle;rounded=0;orthogonalLoop=1;jettySize=auto;html=1;" edge="1" parent="xMWqGZyCQrD27c-tNp-Z-33" source="xMWqGZyCQrD27c-tNp-Z-20" target="xMWqGZyCQrD27c-tNp-Z-22">
          <mxGeometry relative="1" as="geometry" />
        </mxCell>
        <mxCell id="xMWqGZyCQrD27c-tNp-Z-24" value="埋点测试" style="rounded=0;whiteSpace=wrap;html=1;fillColor=#1ba1e2;strokeColor=#006EAF;fontColor=#ffffff;" vertex="1" parent="xMWqGZyCQrD27c-tNp-Z-33">
          <mxGeometry x="480" y="260" width="80" height="30" as="geometry" />
        </mxCell>
        <mxCell id="xMWqGZyCQrD27c-tNp-Z-25" value="" style="edgeStyle=orthogonalEdgeStyle;rounded=0;orthogonalLoop=1;jettySize=auto;html=1;" edge="1" parent="xMWqGZyCQrD27c-tNp-Z-33" source="xMWqGZyCQrD27c-tNp-Z-22" target="xMWqGZyCQrD27c-tNp-Z-24">
          <mxGeometry relative="1" as="geometry" />
        </mxCell>
        <mxCell id="xMWqGZyCQrD27c-tNp-Z-26" value="埋点验收" style="rounded=0;whiteSpace=wrap;html=1;fillColor=#1ba1e2;strokeColor=#006EAF;fontColor=#ffffff;" vertex="1" parent="xMWqGZyCQrD27c-tNp-Z-33">
          <mxGeometry x="200" y="330" width="80" height="30" as="geometry" />
        </mxCell>
        <mxCell id="xMWqGZyCQrD27c-tNp-Z-27" value="" style="edgeStyle=orthogonalEdgeStyle;rounded=0;orthogonalLoop=1;jettySize=auto;html=1;" edge="1" parent="xMWqGZyCQrD27c-tNp-Z-33" source="xMWqGZyCQrD27c-tNp-Z-24" target="xMWqGZyCQrD27c-tNp-Z-26">
          <mxGeometry relative="1" as="geometry">
            <Array as="points">
              <mxPoint x="530" y="345" />
            </Array>
          </mxGeometry>
        </mxCell>
        <mxCell id="xMWqGZyCQrD27c-tNp-Z-28" value="数据应用" style="rounded=0;whiteSpace=wrap;html=1;fillColor=#1ba1e2;strokeColor=#006EAF;fontColor=#ffffff;" vertex="1" parent="xMWqGZyCQrD27c-tNp-Z-33">
          <mxGeometry x="60" y="330" width="80" height="30" as="geometry" />
        </mxCell>
        <mxCell id="xMWqGZyCQrD27c-tNp-Z-29" value="" style="edgeStyle=orthogonalEdgeStyle;rounded=0;orthogonalLoop=1;jettySize=auto;html=1;" edge="1" parent="xMWqGZyCQrD27c-tNp-Z-33" source="xMWqGZyCQrD27c-tNp-Z-26" target="xMWqGZyCQrD27c-tNp-Z-28">
          <mxGeometry relative="1" as="geometry" />
        </mxCell>
        <mxCell id="xMWqGZyCQrD27c-tNp-Z-32" value="&lt;font style=&quot;font-size: 16px&quot;&gt;埋点采集到应用全流程&lt;/font&gt;" style="text;html=1;strokeColor=none;fillColor=none;align=center;verticalAlign=middle;whiteSpace=wrap;rounded=0;" vertex="1" parent="xMWqGZyCQrD27c-tNp-Z-33">
          <mxGeometry x="40" y="20" width="170" height="20" as="geometry" />
        </mxCell>
      </root>
    </mxGraphModel>
  </diagram>
</mxfile>
